<svg width="46" height="45" viewBox="0 0 46 45" fill="none" xmlns="http://www.w3.org/2000/svg">
<path d="M39 31L39.692 35.4173L42.5 31.9378L40.8906 36.1094L45.0622 34.5L41.5827 37.308L46 38L41.5827 38.692L45.0622 41.5L40.8906 39.8906L42.5 44.0622L39.692 40.5827L39 45L38.308 40.5827L35.5 44.0622L37.1094 39.8906L32.9378 41.5L36.4173 38.692L32 38L36.4173 37.308L32.9378 34.5L37.1094 36.1094L35.5 31.9378L38.308 35.4173L39 31Z" fill="#237BFF"/>
<path d="M7 30L7.69202 34.4173L10.5 30.9378L8.89064 35.1094L13.0622 33.5L9.58266 36.308L14 37L9.58266 37.692L13.0622 40.5L8.89064 38.8906L10.5 43.0622L7.69202 39.5827L7 44L6.30798 39.5827L3.5 43.0622L5.10936 38.8906L0.937822 40.5L4.41734 37.692L0 37L4.41734 36.308L0.937822 33.5L5.10936 35.1094L3.5 30.9378L6.30798 34.4173L7 30Z" fill="#237BFF"/>
<path d="M11 0L11.692 4.41734L14.5 0.937822L12.8906 5.10936L17.0622 3.5L13.5827 6.30798L18 7L13.5827 7.69202L17.0622 10.5L12.8906 8.89064L14.5 13.0622L11.692 9.58266L11 14L10.308 9.58266L7.5 13.0622L9.10936 8.89064L4.93782 10.5L8.41734 7.69202L4 7L8.41734 6.30798L4.93782 3.5L9.10936 5.10936L7.5 0.937822L10.308 4.41734L11 0Z" fill="#237BFF"/>
</svg>
