<svg width="28" height="28" viewBox="0 0 28 28" fill="none" xmlns="http://www.w3.org/2000/svg">
<g clip-path="url(#clip0_10_71)">
<path d="M25.0833 4.66659H21.9722V6.99993C21.9722 7.22463 21.9279 7.44714 21.8419 7.65474C21.7559 7.86234 21.6299 8.05097 21.471 8.20987C21.3121 8.36876 21.1235 8.4948 20.9159 8.58079C20.7083 8.66678 20.4858 8.71104 20.2611 8.71104C20.0363 8.71104 19.8138 8.66678 19.6062 8.58079C19.3986 8.4948 19.21 8.36876 19.0511 8.20987C18.8922 8.05097 18.7662 7.86234 18.6802 7.65474C18.5942 7.44714 18.5499 7.22463 18.5499 6.99993V4.66659H9.48883V6.99993C9.48883 7.45374 9.30855 7.88897 8.98766 8.20987C8.66676 8.53076 8.23154 8.71104 7.77772 8.71104C7.32391 8.71104 6.88868 8.53076 6.56778 8.20987C6.24689 7.88897 6.06661 7.45374 6.06661 6.99993V4.66659H2.9555C2.7704 4.66449 2.58677 4.69952 2.41545 4.76962C2.24413 4.83972 2.08861 4.94346 1.95809 5.07471C1.82756 5.20596 1.72468 5.36206 1.65553 5.53376C1.58638 5.70547 1.55237 5.88929 1.5555 6.07437V23.481C1.55241 23.6629 1.58517 23.8435 1.6519 24.0126C1.71863 24.1818 1.81804 24.3361 1.94443 24.4669C2.07083 24.5976 2.22174 24.7022 2.38855 24.7746C2.55536 24.847 2.73479 24.8858 2.91661 24.8888H25.0833C25.2651 24.8858 25.4445 24.847 25.6113 24.7746C25.7781 24.7022 25.9291 24.5976 26.0555 24.4669C26.1818 24.3361 26.2812 24.1818 26.348 24.0126C26.4147 23.8435 26.4475 23.6629 26.4444 23.481V6.07437C26.4475 5.89256 26.4147 5.71191 26.348 5.54276C26.2812 5.37361 26.1818 5.21926 26.0555 5.08853C25.9291 4.9578 25.7781 4.85325 25.6113 4.78086C25.4445 4.70846 25.2651 4.66963 25.0833 4.66659ZM7.77772 20.2221H6.22216V18.6666H7.77772V20.2221ZM7.77772 16.3333H6.22216V14.7777H7.77772V16.3333ZM7.77772 12.4444H6.22216V10.8888H7.77772V12.4444ZM12.4444 20.2221H10.8888V18.6666H12.4444V20.2221ZM12.4444 16.3333H10.8888V14.7777H12.4444V16.3333ZM12.4444 12.4444H10.8888V10.8888H12.4444V12.4444ZM17.1111 20.2221H15.5555V18.6666H17.1111V20.2221ZM17.1111 16.3333H15.5555V14.7777H17.1111V16.3333ZM17.1111 12.4444H15.5555V10.8888H17.1111V12.4444ZM21.7777 20.2221H20.2222V18.6666H21.7777V20.2221ZM21.7777 16.3333H20.2222V14.7777H21.7777V16.3333ZM21.7777 12.4444H20.2222V10.8888H21.7777V12.4444Z" fill="#DEDEDE"/>
<path d="M7.77778 7.77789C7.98406 7.77789 8.18189 7.69594 8.32775 7.55008C8.47361 7.40422 8.55556 7.20639 8.55556 7.00011V2.33344C8.55556 2.12716 8.47361 1.92933 8.32775 1.78347C8.18189 1.63761 7.98406 1.55566 7.77778 1.55566C7.5715 1.55566 7.37367 1.63761 7.22781 1.78347C7.08194 1.92933 7 2.12716 7 2.33344V7.00011C7 7.20639 7.08194 7.40422 7.22781 7.55008C7.37367 7.69594 7.5715 7.77789 7.77778 7.77789Z" fill="#DEDEDE"/>
<path d="M20.2222 7.77789C20.4285 7.77789 20.6263 7.69594 20.7722 7.55008C20.9181 7.40422 21 7.20639 21 7.00011V2.33344C21 2.12716 20.9181 1.92933 20.7722 1.78347C20.6263 1.63761 20.4285 1.55566 20.2222 1.55566C20.016 1.55566 19.8181 1.63761 19.6723 1.78347C19.5264 1.92933 19.4445 2.12716 19.4445 2.33344V7.00011C19.4445 7.20639 19.5264 7.40422 19.6723 7.55008C19.8181 7.69594 20.016 7.77789 20.2222 7.77789Z" fill="#DEDEDE"/>
</g>
<defs>
<clipPath id="clip0_10_71">
<rect width="28" height="28" fill="white"/>
</clipPath>
</defs>
</svg>
