<svg width="81" height="77" viewBox="0 0 81 77" fill="none" xmlns="http://www.w3.org/2000/svg">
<path d="M75.5 76.5376C77.05 77.0543 78.4063 76.7313 79.5688 75.5688C80.7313 74.4063 81.0542 73.0501 80.5375 71.5001L68.0406 36.5282C67.0719 33.8157 65.199 32.1533 62.4219 31.5411C59.6448 30.9289 57.2552 31.6225 55.2531 33.622L37.6219 51.2532C35.6198 53.2553 34.9249 55.6449 35.5371 58.422C36.1494 61.1991 37.813 63.072 40.5281 64.0407L75.5 76.5376ZM36.6531 40.597C37.2344 40.0157 37.525 39.3376 37.525 38.5626C37.525 37.7876 37.2344 37.1095 36.6531 36.5282L16.9875 16.8626C14.9208 14.7959 12.4344 13.7626 9.52813 13.7626C6.62188 13.7626 4.13542 14.7959 2.06876 16.8626L1.68126 17.2501C1.16459 17.7668 0.906258 18.4126 0.906258 19.1876C0.906258 19.9626 1.19688 20.6407 1.77813 21.222C2.35938 21.8032 3.03751 22.0938 3.81251 22.0938C4.58751 22.0938 5.26562 21.8032 5.84688 21.222L6.1375 20.9314C7.04167 20.0272 8.17188 19.5751 9.52813 19.5751C10.8844 19.5751 12.0146 20.0272 12.9188 20.9314L32.6813 40.6938C33.1979 41.2105 33.8438 41.4688 34.6188 41.4688C35.3938 41.4688 36.0719 41.1782 36.6531 40.597ZM52.1531 25.097C52.7344 24.5157 53.025 23.8376 53.025 23.0626C53.025 22.2876 52.7344 21.6095 52.1531 21.0282L51.8625 20.7376C50.9583 19.8334 50.5063 18.7355 50.5063 17.4438C50.5063 16.1522 50.9583 15.0543 51.8625 14.1501L52.4438 13.5688C52.9604 13.0522 53.2188 12.4063 53.2188 11.6313C53.2188 10.8563 52.9281 10.1782 52.3469 9.59697C51.7656 9.01572 51.0875 8.7251 50.3125 8.7251C49.5375 8.7251 48.8594 9.01572 48.2781 9.59697L47.7938 10.0813C45.7271 12.148 44.6938 14.6022 44.6938 17.4438C44.6938 20.2855 45.7271 22.7397 47.7938 24.8064L48.1813 25.1938C48.6979 25.7105 49.3438 25.9688 50.1188 25.9688C50.8938 25.9688 51.5719 25.6782 52.1531 25.097ZM44.4031 32.847C44.9844 32.2657 45.275 31.5876 45.275 30.8126C45.275 30.0376 44.9844 29.3595 44.4031 28.7782L32.4875 16.8626C31.5833 15.9584 31.1313 14.8282 31.1313 13.472C31.1313 12.1157 31.5833 10.9855 32.4875 10.0813L36.75 5.81885C37.2667 5.30218 37.525 4.65635 37.525 3.88135C37.525 3.10635 37.2344 2.42822 36.6531 1.84697C36.0719 1.26572 35.3938 0.975098 34.6188 0.975098C33.8438 0.975098 33.1656 1.26572 32.5844 1.84697L28.4188 6.0126C26.3521 8.07927 25.3188 10.5657 25.3188 13.472C25.3188 16.3782 26.3521 18.8647 28.4188 20.9314L40.4313 32.9438C40.9479 33.4605 41.5938 33.7188 42.3688 33.7188C43.1438 33.7188 43.8219 33.4282 44.4031 32.847ZM28.9031 48.347C29.4844 47.7657 29.775 47.0876 29.775 46.3126C29.775 45.5376 29.4844 44.8595 28.9031 44.2782L24.7375 40.1126C22.6708 38.0459 20.1844 37.0126 17.2781 37.0126C14.3719 37.0126 11.8854 38.0459 9.81876 40.1126L5.55626 44.3751C5.03959 44.8918 4.78126 45.5376 4.78126 46.3126C4.78126 47.0876 5.07188 47.7657 5.65313 48.347C6.23438 48.9282 6.91251 49.2188 7.68751 49.2188C8.46251 49.2188 9.14062 48.9282 9.72188 48.347L13.8875 44.1814C14.7917 43.2772 15.9219 42.8251 17.2781 42.8251C18.6344 42.8251 19.7646 43.2772 20.6688 44.1814L24.9313 48.4439C25.4479 48.9605 26.0938 49.2188 26.8688 49.2188C27.6438 49.2188 28.3219 48.9282 28.9031 48.347Z" fill="#237BFF"/>
</svg>
