<svg width="203" height="52" viewBox="0 0 203 52" fill="none" xmlns="http://www.w3.org/2000/svg">
<path d="M20.9445 17.3452L32.6095 24.938C32.7691 25.0508 32.8993 25.2 32.9891 25.3731C33.079 25.5462 33.1258 25.7381 33.1258 25.9329C33.1258 26.1276 33.079 26.3195 32.9891 26.4926C32.8993 26.6657 32.7691 26.8149 32.6095 26.9277L20.9445 34.5449M44.2007 28.4414C44.3077 27.6318 44.3651 26.8165 44.3726 26C44.3651 25.1835 44.3077 24.3682 44.2007 23.5586L49.5174 19.4204C49.7575 19.2381 49.9216 18.9742 49.9782 18.6792C50.0349 18.3841 49.9801 18.0787 49.8244 17.8213L44.7901 9.14213C44.6443 8.8818 44.4077 8.68348 44.125 8.58454C43.8423 8.48561 43.5329 8.49289 43.2552 8.60502L36.9807 11.1197C35.6751 10.129 34.2474 9.30858 32.7322 8.67826L31.7868 2.04986C31.7336 1.76172 31.5827 1.50039 31.3593 1.30938C31.1359 1.11836 30.8534 1.0092 30.5589 1.00006H20.4902C20.1923 0.997144 19.9034 1.10204 19.6775 1.29518C19.4516 1.48833 19.304 1.75656 19.2623 2.04986L18.3169 8.67826C16.7998 9.30466 15.3716 10.1254 14.0684 11.1197L7.74477 8.60502C7.46708 8.49289 7.15772 8.48561 6.875 8.58454C6.59228 8.68348 6.35573 8.8818 6.20991 9.14213L1.17558 17.8213C1.0199 18.0787 0.965136 18.3841 1.02177 18.6792C1.0784 18.9742 1.24246 19.2381 1.48255 19.4204L6.78702 23.5586C6.68047 24.3682 6.62307 25.1835 6.61512 26C6.62265 26.8165 6.68005 27.6318 6.78702 28.4414L1.48255 32.5796C1.24246 32.7619 1.0784 33.0258 1.02177 33.3208C0.965136 33.6159 1.0199 33.9213 1.17558 34.1787L6.20991 42.8579C6.35573 43.1182 6.59228 43.3165 6.875 43.4155C7.15772 43.5144 7.46708 43.5071 7.74477 43.395L14.0193 40.8803C15.3249 41.871 16.7526 42.6914 18.2678 43.3217L19.2132 49.9501C19.2549 50.2434 19.4025 50.5117 19.6284 50.7048C19.8543 50.898 20.1432 51.0029 20.4411 50.9999H30.5098C30.8077 51.0029 31.0966 50.898 31.3225 50.7048C31.5484 50.5117 31.696 50.2434 31.7377 49.9501L32.6831 43.3217C34.2002 42.6953 35.6284 41.8746 36.9316 40.8803L43.2061 43.395C43.4838 43.5071 43.7932 43.5144 44.0759 43.4155C44.3586 43.3165 44.5952 43.1182 44.741 42.8579L49.7753 34.1787C49.931 33.9213 49.9857 33.6159 49.9291 33.3208C49.8725 33.0258 49.7084 32.7619 49.4683 32.5796L44.2007 28.4414ZM20.4779 22.7651C20.4775 22.6511 20.5081 22.5391 20.5663 22.4408C20.6245 22.3425 20.7082 22.2617 20.8087 22.2067C20.9092 22.1518 21.0228 22.1247 21.1374 22.1285C21.2521 22.1322 21.3636 22.1666 21.4603 22.228L26.3718 25.4019C26.4605 25.4596 26.5333 25.5384 26.5837 25.6311C26.6341 25.7238 26.6605 25.8275 26.6605 25.9329C26.6605 26.0382 26.6341 26.142 26.5837 26.2347C26.5333 26.3274 26.4605 26.4061 26.3718 26.4639L21.4603 29.6377C21.3636 29.6991 21.2521 29.7335 21.1374 29.7372C21.0228 29.741 20.9092 29.7139 20.8087 29.659C20.7082 29.604 20.6245 29.5232 20.5663 29.4249C20.5081 29.3267 20.4775 29.2146 20.4779 29.1006V22.7651Z" stroke="#237BFF" stroke-width="2" stroke-linecap="round" stroke-linejoin="round"/>
<path d="M71.708 22.336C71.708 23.3253 71.4747 24.2587 71.008 25.136C70.5413 26.0133 69.7947 26.732 68.768 27.292C67.7413 27.8333 66.4253 28.104 64.82 28.104H61.292V36H58.1V16.54H64.82C66.3133 16.54 67.5733 16.8013 68.6 17.324C69.6453 17.828 70.42 18.5187 70.924 19.396C71.4467 20.2733 71.708 21.2533 71.708 22.336ZM64.82 25.5C66.0333 25.5 66.9387 25.2293 67.536 24.688C68.1333 24.128 68.432 23.344 68.432 22.336C68.432 20.208 67.228 19.144 64.82 19.144H61.292V25.5H64.82ZM77.9443 19.116V24.828H84.6643V27.432H77.9443V33.396H85.5043V36H74.7523V16.512H85.5043V19.116H77.9443ZM105.424 36H102.232L92.6279 21.468V36H89.4359V16.512H92.6279L102.232 31.016V16.512H105.424V36ZM137.385 16.54V36H134.193V22.672L128.257 36H126.045L120.081 22.672V36H116.889V16.54H120.333L127.165 31.8L133.969 16.54H137.385ZM155.72 27.908C155.72 28.4867 155.683 29.0093 155.608 29.476H143.82C143.914 30.708 144.371 31.6973 145.192 32.444C146.014 33.1907 147.022 33.564 148.216 33.564C149.934 33.564 151.147 32.8453 151.856 31.408H155.3C154.834 32.8267 153.984 33.9933 152.752 34.908C151.539 35.804 150.027 36.252 148.216 36.252C146.742 36.252 145.416 35.9253 144.24 35.272C143.083 34.6 142.168 33.6667 141.496 32.472C140.843 31.2587 140.516 29.8587 140.516 28.272C140.516 26.6853 140.834 25.2947 141.468 24.1C142.122 22.8867 143.027 21.9533 144.184 21.3C145.36 20.6467 146.704 20.32 148.216 20.32C149.672 20.32 150.97 20.6373 152.108 21.272C153.247 21.9067 154.134 22.8027 154.768 23.96C155.403 25.0987 155.72 26.4147 155.72 27.908ZM152.388 26.9C152.37 25.724 151.95 24.7813 151.128 24.072C150.307 23.3627 149.29 23.008 148.076 23.008C146.975 23.008 146.032 23.3627 145.248 24.072C144.464 24.7627 143.998 25.7053 143.848 26.9H152.388ZM157.798 28.216C157.798 26.6667 158.115 25.2947 158.75 24.1C159.403 22.9053 160.28 21.9813 161.382 21.328C162.502 20.656 163.743 20.32 165.106 20.32C166.114 20.32 167.103 20.544 168.074 20.992C169.063 21.4213 169.847 22 170.426 22.728V15.28H173.646V36H170.426V33.676C169.903 34.4227 169.175 35.0387 168.242 35.524C167.327 36.0093 166.272 36.252 165.078 36.252C163.734 36.252 162.502 35.916 161.382 35.244C160.28 34.5533 159.403 33.6013 158.75 32.388C158.115 31.156 157.798 29.7653 157.798 28.216ZM170.426 28.272C170.426 27.208 170.202 26.284 169.754 25.5C169.324 24.716 168.755 24.1187 168.046 23.708C167.336 23.2973 166.571 23.092 165.75 23.092C164.928 23.092 164.163 23.2973 163.454 23.708C162.744 24.1 162.166 24.688 161.718 25.472C161.288 26.2373 161.074 27.152 161.074 28.216C161.074 29.28 161.288 30.2133 161.718 31.016C162.166 31.8187 162.744 32.4347 163.454 32.864C164.182 33.2747 164.947 33.48 165.75 33.48C166.571 33.48 167.336 33.2747 168.046 32.864C168.755 32.4533 169.324 31.856 169.754 31.072C170.202 30.2693 170.426 29.336 170.426 28.272ZM179.462 18.528C178.884 18.528 178.398 18.332 178.006 17.94C177.614 17.548 177.418 17.0627 177.418 16.484C177.418 15.9053 177.614 15.42 178.006 15.028C178.398 14.636 178.884 14.44 179.462 14.44C180.022 14.44 180.498 14.636 180.89 15.028C181.282 15.42 181.478 15.9053 181.478 16.484C181.478 17.0627 181.282 17.548 180.89 17.94C180.498 18.332 180.022 18.528 179.462 18.528ZM181.03 20.572V36H177.838V20.572H181.03ZM184.157 28.216C184.157 26.6667 184.474 25.2947 185.109 24.1C185.762 22.9053 186.64 21.9813 187.741 21.328C188.861 20.656 190.093 20.32 191.437 20.32C192.65 20.32 193.705 20.5627 194.601 21.048C195.516 21.5147 196.244 22.1027 196.785 22.812V20.572H200.005V36H196.785V33.704C196.244 34.432 195.506 35.0387 194.573 35.524C193.64 36.0093 192.576 36.252 191.381 36.252C190.056 36.252 188.842 35.916 187.741 35.244C186.64 34.5533 185.762 33.6013 185.109 32.388C184.474 31.156 184.157 29.7653 184.157 28.216ZM196.785 28.272C196.785 27.208 196.561 26.284 196.113 25.5C195.684 24.716 195.114 24.1187 194.405 23.708C193.696 23.2973 192.93 23.092 192.109 23.092C191.288 23.092 190.522 23.2973 189.813 23.708C189.104 24.1 188.525 24.688 188.077 25.472C187.648 26.2373 187.433 27.152 187.433 28.216C187.433 29.28 187.648 30.2133 188.077 31.016C188.525 31.8187 189.104 32.4347 189.813 32.864C190.541 33.2747 191.306 33.48 192.109 33.48C192.93 33.48 193.696 33.2747 194.405 32.864C195.114 32.4533 195.684 31.856 196.113 31.072C196.561 30.2693 196.785 29.336 196.785 28.272Z" fill="#237BFF"/>
</svg>
