<svg width="30" height="24" viewBox="0 0 30 24" fill="none" xmlns="http://www.w3.org/2000/svg">
<path d="M2.96842 24C2.15211 24 1.45304 23.7065 0.871234 23.1195C0.289423 22.5325 -0.000986954 21.826 2.51988e-06 21V3C2.51988e-06 2.175 0.290908 1.4685 0.872718 0.880502C1.45453 0.292502 2.1531 -0.000997453 2.96842 2.54669e-06H26.7158C27.5321 2.54669e-06 28.2312 0.294002 28.813 0.882002C29.3948 1.47 29.6852 2.176 29.6842 3V21C29.6842 21.825 29.3933 22.5315 28.8115 23.1195C28.2297 23.7075 27.5311 24.001 26.7158 24H2.96842ZM12.6158 19.5C13.6547 19.5 14.5329 19.1375 15.2503 18.4125C15.9676 17.6875 16.3263 16.8 16.3263 15.75V7.5H19.2947C19.7153 7.5 20.068 7.356 20.353 7.068C20.6379 6.78 20.7799 6.424 20.7789 6C20.7789 5.575 20.6365 5.2185 20.3515 4.9305C20.0665 4.6425 19.7143 4.499 19.2947 4.5H16.3263C15.9058 4.5 15.553 4.644 15.2681 4.932C14.9831 5.22 14.8411 5.576 14.8421 6V12.75C14.5205 12.525 14.1742 12.3435 13.8032 12.2055C13.4321 12.0675 13.0363 11.999 12.6158 12C11.5768 12 10.6987 12.3625 9.98132 13.0875C9.26395 13.8125 8.90526 14.7 8.90526 15.75C8.90526 16.8 9.26395 17.6875 9.98132 18.4125C10.6987 19.1375 11.5768 19.5 12.6158 19.5Z" fill="#DEDEDE"/>
</svg>
