<svg width="18" height="20" viewBox="0 0 18 20" fill="none" xmlns="http://www.w3.org/2000/svg">
<g clip-path="url(#clip0_5_160)">
<path d="M13.0841 7.20145C14.3723 8.1218 15.9503 8.66332 17.6547 8.66332V5.38538C17.3321 5.38545 17.0104 5.3518 16.6948 5.28497V7.86518C14.9906 7.86518 13.4127 7.32373 12.1243 6.40345V13.0928C12.1243 16.4392 9.41012 19.1518 6.06226 19.1518C4.81309 19.1518 3.65198 18.7744 2.6875 18.127C3.78833 19.252 5.3235 19.9499 7.02185 19.9499C10.37 19.9499 13.0843 17.2373 13.0843 13.8908V7.20145H13.0841ZM14.2683 3.89442C13.6099 3.17559 13.1776 2.24662 13.0841 1.21959V0.798004H12.1745C12.4035 2.10331 13.1845 3.21849 14.2683 3.89442ZM4.80502 15.5591C4.43722 15.0771 4.2384 14.4875 4.23929 13.8812C4.23929 12.3507 5.48074 11.1097 7.0124 11.1097C7.29779 11.1096 7.58151 11.1534 7.85357 11.2396V7.88835C7.53564 7.84483 7.21481 7.82628 6.89412 7.83311V10.4415C6.62193 10.3553 6.33807 10.3115 6.05253 10.3117C4.52095 10.3117 3.27957 11.5526 3.27957 13.0832C3.27957 14.1656 3.90005 15.1026 4.80502 15.5591Z" fill="#FF004F"/>
<path d="M12.1243 6.40338C13.4128 7.32366 14.9905 7.86511 16.6948 7.86511V5.2849C15.7435 5.08235 14.9014 4.58552 14.2682 3.89442C13.1844 3.21842 12.4035 2.10325 12.1745 0.798004H9.78536V13.8906C9.77992 15.417 8.54061 16.6528 7.01226 16.6528C6.11171 16.6528 5.31157 16.2238 4.80488 15.559C3.90005 15.1026 3.2795 14.1655 3.2795 13.0833C3.2795 11.5528 4.52088 10.3118 6.05247 10.3118C6.34592 10.3118 6.62874 10.3575 6.89405 10.4416V7.83318C3.60495 7.90111 0.959778 10.5872 0.959778 13.8907C0.959778 15.5398 1.61847 17.0348 2.68757 18.1271C3.65205 18.7743 4.81309 19.1519 6.06233 19.1519C9.41026 19.1519 12.1244 16.4392 12.1244 13.0928V6.40345L12.1243 6.40338Z" fill="black"/>
<path d="M16.6948 5.28483V4.58731C15.837 4.58861 14.996 4.34849 14.2682 3.89441C14.9125 4.59939 15.7609 5.08554 16.6948 5.28497V5.28483ZM12.1745 0.797931C12.1527 0.673214 12.1359 0.547663 12.1243 0.421586V0H8.82538V13.0928C8.82014 14.619 7.58083 15.8548 6.05241 15.8548C5.61912 15.8555 5.19175 15.7542 4.80483 15.5592C5.31152 16.2238 6.11166 16.6528 7.01221 16.6528C8.54048 16.6528 9.77993 15.417 9.78531 13.8907V0.798H12.1745V0.797931ZM6.89421 7.8331V7.09041C6.61855 7.05273 6.34064 7.03388 6.06241 7.034C2.71414 7.034 0 9.74669 0 13.0928C0 15.1906 1.06669 17.0394 2.68766 18.127C1.61855 17.0347 0.959862 15.5397 0.959862 13.8906C0.959862 10.5872 3.60497 7.90103 6.89421 7.8331Z" fill="#00F2EA"/>
</g>
<defs>
<clipPath id="clip0_5_160">
<rect width="17.6552" height="20" fill="white"/>
</clipPath>
</defs>
</svg>
