<svg width="25" height="20" viewBox="0 0 25 20" fill="none" xmlns="http://www.w3.org/2000/svg">
<path d="M25 2.36755C24.0638 2.77581 23.0709 3.04378 22.0541 3.16257C23.1132 2.53771 23.9264 1.54822 24.3093 0.369245C23.3025 0.95737 22.201 1.37174 21.0523 1.59446C20.1167 0.61323 18.7838 0 17.3085 0C14.4759 0 12.1793 2.26065 12.1793 5.04888C12.1793 5.44466 12.2247 5.82996 12.3121 6.19959C8.04941 5.98896 4.27012 3.97893 1.74033 0.924219C1.29893 1.66992 1.046 2.53732 1.046 3.4625C1.046 5.21423 1.95156 6.75956 3.32773 7.66504C2.51323 7.63993 1.71665 7.42337 1.00449 7.03344C1.0042 7.05459 1.0042 7.07574 1.0042 7.09699C1.0042 9.54328 2.77217 11.584 5.11846 12.0478C4.36317 12.25 3.57093 12.2796 2.80225 12.1343C3.45488 14.1402 5.34912 15.5999 7.59346 15.6408C5.83809 16.9949 3.62646 17.8021 1.22354 17.8021C0.809473 17.8021 0.40127 17.7782 0 17.7316C2.26982 19.1641 4.96582 20 7.8623 20C17.2966 20 22.4555 12.3064 22.4555 5.63443C22.4555 5.41544 22.4506 5.1977 22.4406 4.98121C23.4448 4.26664 24.3114 3.38157 25 2.36755Z" fill="#55ACEE"/>
</svg>
