<svg width="79" height="63" viewBox="0 0 79 63" fill="none" xmlns="http://www.w3.org/2000/svg">
<path d="M78.75 7.45779C75.8011 8.74379 72.6732 9.58791 69.4704 9.9621C72.8065 7.99378 75.3681 4.87688 76.5742 1.16312C73.4029 3.01572 69.9331 4.32099 66.3149 5.02253C63.3676 1.93167 59.1689 0 54.5218 0C45.599 0 38.3648 7.12106 38.3648 15.904C38.3648 17.1507 38.5078 18.3644 38.7831 19.5287C25.3557 18.8652 13.4509 12.5336 5.48205 2.91129C4.09162 5.26025 3.29489 7.99257 3.29489 10.9069C3.29489 16.4248 6.14742 21.2926 10.4824 24.1449C7.91668 24.0658 5.40744 23.3836 3.16415 22.1554C3.16323 22.222 3.16323 22.2886 3.16323 22.3555C3.16323 30.0613 8.73233 36.4895 16.1231 37.9506C13.744 38.5876 11.2484 38.6808 8.82708 38.2232C10.8829 44.5418 16.8497 49.1397 23.9194 49.2684C18.39 53.5339 11.4234 56.0767 3.85414 56.0767C2.54984 56.0767 1.264 56.0013 0 55.8544C7.14995 60.367 15.6423 63 24.7663 63C54.4842 63 70.7347 38.7652 70.7347 17.7484C70.7347 17.0586 70.7194 16.3727 70.688 15.6908C73.851 13.4399 76.581 10.652 78.75 7.45779Z" fill="#55ACEE"/>
</svg>
