<svg width="67" height="61" viewBox="0 0 67 61" fill="none" xmlns="http://www.w3.org/2000/svg">
<path d="M11.0139 0C8.09282 0 5.2914 1.16039 3.22589 3.22589C1.16039 5.2914 0 8.09282 0 11.0139V41.5139C0 44.435 1.16039 47.2364 3.22589 49.3019C5.2914 51.3674 8.09282 52.5278 11.0139 52.5278H46.5972C49.5183 52.5278 52.3197 51.3674 54.3852 49.3019C56.4507 47.2364 57.6111 44.435 57.6111 41.5139V11.0139C57.6111 8.09282 56.4507 5.2914 54.3852 3.22589C52.3197 1.16039 49.5183 0 46.5972 0H11.0139ZM20.3333 34.7361V16.1006C20.3335 15.6444 20.4564 15.1967 20.6892 14.8044C20.922 14.4121 21.2561 14.0897 21.6564 13.8709C22.0568 13.6522 22.5086 13.5453 22.9645 13.5614C23.4204 13.5774 23.8635 13.7159 24.2475 13.9622L39.8974 23.9899C40.1367 24.1432 40.3335 24.3543 40.4699 24.6036C40.6062 24.8529 40.6777 25.1325 40.6777 25.4167C40.6777 25.7008 40.6062 25.9804 40.4699 26.2298C40.3335 26.4791 40.1367 26.6901 39.8974 26.8434L24.2475 36.8711C23.8635 37.1174 23.4204 37.2559 22.9645 37.272C22.5086 37.288 22.0568 37.1811 21.6564 36.9624C21.2561 36.7437 20.922 36.4212 20.6892 36.0289C20.4564 35.6366 20.3335 35.1889 20.3333 34.7327V34.7361ZM19.4861 61C17.6358 61.0017 15.8149 60.5368 14.1919 59.6483C12.5689 58.7598 11.1961 57.4763 10.2006 55.9167H48.2917C51.6621 55.9167 54.8945 54.5778 57.2778 52.1945C59.6611 49.8112 61 46.5788 61 43.2083V10.2006C62.5597 11.1961 63.8431 12.5689 64.7316 14.1919C65.6202 15.8149 66.0851 17.6358 66.0833 19.4861V43.2083C66.0833 53.0361 58.1194 61 48.2917 61H19.4861Z" fill="#DEDEDE"/>
</svg>
