<svg width="29" height="20" viewBox="0 0 29 20" fill="none" xmlns="http://www.w3.org/2000/svg">
<path d="M28.1069 3.13189C27.942 2.52654 27.6204 1.97467 27.1741 1.53122C26.7279 1.08778 26.1725 0.768231 25.5632 0.604401C23.3328 0 14.3562 0 14.3562 0C14.3562 0 5.3792 0.0182948 3.1488 0.622696C2.53956 0.786535 1.98414 1.1061 1.53786 1.54957C1.09158 1.99303 0.770007 2.54493 0.605167 3.15029C-0.0694748 7.08793 -0.331181 13.088 0.623692 16.8681C0.788549 17.4735 1.11013 18.0253 1.55641 18.4688C2.00269 18.9122 2.5581 19.2318 3.16733 19.3956C5.39772 20 14.3745 20 14.3745 20C14.3745 20 23.3512 20 25.5815 19.3956C26.1908 19.2318 26.7462 18.9122 27.1925 18.4688C27.6388 18.0254 27.9604 17.4735 28.1253 16.8681C28.8368 12.9249 29.0561 6.92852 28.1069 3.13189Z" fill="#FF0000"/>
<path d="M11.499 14.2856L18.9458 9.99994L11.499 5.71425V14.2856Z" fill="white"/>
</svg>
